<svg xmlns="http://www.w3.org/2000/svg" width="349" height="101" viewBox="0 0 349 101">
  <path fill="#FF4747" fill-rule="evenodd" d="M297.214196,24.619743 L290.936833,24.619743 L290.936833,61.0162604 L297.214196,61.0162604 L297.214196,39.8659287 C297.214196,33.3633582 302.895456,28.5057297 309.695207,29.776874 L309.695207,23.7978524 C304.090564,23.0508375 299.606153,25.5913847 297.214196,30.8971061 L297.214196,24.619743 Z M329.5001,23.872728 C318.962952,23.872728 310.741725,31.8693284 310.741725,42.7796932 C310.741725,53.6923798 318.962952,61.6889801 329.5001,61.6889801 C340.038988,61.6889801 348.258474,53.6923798 348.258474,42.7796932 C348.258474,31.8693284 340.038988,23.872728 329.5001,23.872728 L329.5001,23.872728 Z M329.5001,56.009461 C322.549436,56.009461 317.019088,50.4791128 317.019088,42.7796932 C317.019088,35.0825954 322.549436,29.5522471 329.5001,29.5522471 C336.450763,29.5522471 341.981111,35.0825954 341.981111,42.7796932 C341.981111,50.4791128 336.450763,56.009461 329.5001,56.009461 L329.5001,56.009461 Z M94.1056551,8.70083748 L94.1056551,61.0162604 L104.419917,61.0162604 L104.419917,41.9583831 L117.125556,41.9583831 C127.363201,41.9583831 134.986584,34.8591294 134.986584,25.2181675 C134.986584,15.6509204 127.662703,8.70083748 117.498773,8.70083748 L94.1056551,8.70083748 Z M116.37796,33.1404726 L104.419917,33.1404726 L104.419917,17.8942869 L116.37796,17.8942869 C121.310464,17.8942869 124.748358,21.0326783 124.748358,25.5170896 C124.748358,30.0015008 121.310464,33.1404726 116.37796,33.1404726 L116.37796,33.1404726 Z M149.335423,5.71219735 L139.844212,8.70083748 L139.844212,61.0162604 L149.335423,61.0162604 L149.335423,5.71219735 Z M172.427877,61.5398093 C177.06204,61.5398093 181.247529,59.8205721 184.38592,56.9056468 L184.38592,61.0162604 L193.877131,61.0162604 L193.877131,23.7241376 L184.38592,23.7241376 L184.38592,27.83301 C181.396119,24.8443698 177.285506,23.1257131 172.802836,23.1257131 C163.086998,23.1257131 154.267347,31.1966086 154.267347,42.3321808 C154.267347,53.4671725 162.936667,61.5398093 172.427877,61.5398093 L172.427877,61.5398093 Z M174.072239,53.01966 C168.318425,53.01966 163.683682,48.6095439 163.683682,42.3321808 C163.683682,36.0542371 168.318425,31.6447015 174.072239,31.6447015 C179.90209,31.6447015 184.460216,36.0542371 184.460216,42.3321808 C184.460216,48.6095439 179.90209,53.01966 174.072239,53.01966 L174.072239,53.01966 Z M238.121078,23.7241376 L228.180614,23.7241376 L217.56743,45.6957794 L206.73136,23.7241376 L196.119917,23.7241376 L212.113118,56.3072222 L201.425638,77.5335904 L211.73932,77.5335904 L238.121078,23.7241376 Z M279.578955,24.1019983 C279.578955,18.4979353 275.394627,14.6119486 268.968673,14.6119486 L256.264776,14.6119486 L256.264776,33.8909701 L268.968673,33.8909701 C275.244876,33.8909701 279.578955,29.7815174 279.578955,24.1019983 L279.578955,24.1019983 Z M268.968673,8.70896352 C278.906816,8.70896352 286.080365,15.2846683 286.080365,24.1019983 C286.080365,32.994204 278.906816,39.6447844 268.968673,39.6447844 L256.264776,39.6447844 L256.264776,61.0162604 L249.689071,61.0162604 L249.689071,8.70896352 L268.968673,8.70896352 Z M54.472073,45.509461 L51.4248093,40.6448673 L42.5279602,40.6448673 L45.5798673,35.7721476 L48.3908955,35.7721476 L44.9930514,30.3474378 L35.5157711,45.509461 L10.2316086,45.509461 L16.3197512,35.7721476 L11.8498507,35.7721476 L14.888408,30.8994279 L34.4326866,30.8994279 L31.3918076,35.7721476 L22.0706633,35.7721476 L19.0233997,40.6448673 L32.8127032,40.6448673 L44.9930514,21.1510862 L60.2166003,45.509461 L54.472073,45.509461 Z M20.9782919,21.1510862 L41.0263847,21.1510862 L37.9791211,26.0261277 L17.9333499,26.0261277 L20.9782919,21.1510862 Z M34.8726534,-0.000406301824 C15.6139469,-0.000406301824 -0.000232172471,15.6149337 -0.000232172471,34.8742206 C-0.000232172471,54.1387313 15.6139469,69.7471061 34.8726534,69.7471061 C54.1313599,69.7471061 69.7472803,54.1387313 69.7472803,34.8742206 C69.7472803,15.6149337 54.1313599,-0.000406301824 34.8726534,-0.000406301824 L34.8726534,-0.000406301824 Z" transform="translate(0 1)"/>
</svg>
